<?xml version="1.0" encoding="utf-8"?>
<!-- Generator: Adobe Illustrator 28.2.0, SVG Export Plug-In . SVG Version: 6.00 Build 0)  -->
<svg version="1.1" id="Layer_1" xmlns="http://www.w3.org/2000/svg" xmlns:xlink="http://www.w3.org/1999/xlink" x="0px" y="0px"
	 viewBox="0 0 400 400" style="enable-background:new 0 0 400 400;" xml:space="preserve">
<style type="text/css">
	.st0{fill:#FFFFFF;}
	.st1{clip-path:url(#SVGID_00000031888807148959863640000002216416019758009789_);}
	.st2{clip-path:url(#SVGID_00000016039945598478227850000017703269916157341862_);fill:#1E1E1E;}
	.st3{clip-path:url(#SVGID_00000137110982157229076240000001852844525981134255_);fill:#494949;}
	.st4{fill:#5E5E5E;}
</style>
<rect class="st0" width="400" height="400"/>
<g>
	<g>
		<g>
			<defs>
				<rect id="SVGID_1_" x="140.8" y="128" width="131" height="144"/>
			</defs>
			<clipPath id="SVGID_00000030447786836833393240000016447923113085167246_">
				<use xlink:href="#SVGID_1_"  style="overflow:visible;"/>
			</clipPath>
			<path style="clip-path:url(#SVGID_00000030447786836833393240000016447923113085167246_);" d="M271.7,128v144
				c-33.2-2.2-26-26.2-35.6-40.6c-9.5-14.6-32.4-6.8-47.2-25.4c-15.1-18.4-11-31.6-15.1-42.3c-4-10.7-19-12.8-26.7-19.8
				c-6.3-6-6.3-15.9-6.3-15.9H271.7L271.7,128z"/>
		</g>
	</g>
	<g>
		<g>
			<defs>
				<rect id="SVGID_00000008129467835573178180000014949999413275490985_" x="136.6" y="164" width="98.2" height="108"/>
			</defs>
			<clipPath id="SVGID_00000076579416925778564780000002764883776894744496_">
				<use xlink:href="#SVGID_00000008129467835573178180000014949999413275490985_"  style="overflow:visible;"/>
			</clipPath>
			<path style="clip-path:url(#SVGID_00000076579416925778564780000002764883776894744496_);fill:#1E1E1E;" d="M235,164v107.9
				c-25-1.7-19.5-19.6-26.7-30.4c-7.1-11-24.3-5.1-35.5-19c-11.3-13.8-8.3-23.7-11.3-31.7c-3-8-14.3-9.6-20-14.9
				c-4.8-4.5-4.8-11.9-4.8-11.9L235,164L235,164z"/>
		</g>
	</g>
	<g>
		<g>
			<defs>
				<rect id="SVGID_00000175314778055331952520000003401599546333469859_" x="132" y="200" width="65.5" height="72"/>
			</defs>
			<clipPath id="SVGID_00000177452453258390075900000009474993484835127472_">
				<use xlink:href="#SVGID_00000175314778055331952520000003401599546333469859_"  style="overflow:visible;"/>
			</clipPath>
			<path style="clip-path:url(#SVGID_00000177452453258390075900000009474993484835127472_);fill:#494949;" d="M197.6,200v71.9
				c-16.7-1.2-13.1-13.1-17.8-20.3c-4.8-7.3-16.2-3.4-23.7-12.7c-7.5-9.2-5.5-15.8-7.5-21.1s-9.5-6.4-13.3-9.9
				c-3.2-3-3.2-7.9-3.2-7.9L197.6,200L197.6,200z"/>
		</g>
	</g>
	<path class="st4" d="M144.4,240.6L144.4,240.6c8.9,0,16.1,7,16.1,15.7l0,0c0,8.7-7.2,15.7-16.1,15.7l0,0c-8.9,0-16.1-7-16.1-15.7
		l0,0C128.3,247.6,135.5,240.6,144.4,240.6z"/>
</g>
</svg>
