<?xml version="1.0" encoding="utf-8"?>
<!-- Generator: Adobe Illustrator 28.2.0, SVG Export Plug-In . SVG Version: 6.00 Build 0)  -->
<svg version="1.1" id="Layer_1" xmlns="http://www.w3.org/2000/svg" xmlns:xlink="http://www.w3.org/1999/xlink" x="0px" y="0px"
	 viewBox="0 0 400 400" style="enable-background:new 0 0 400 400;" xml:space="preserve">
<style type="text/css">
	.st0{fill:#0A0A0A;}
	.st1{clip-path:url(#SVGID_00000164508529732586812060000010576449641970547347_);fill:#DBDBDB;}
	.st2{clip-path:url(#SVGID_00000142151559312283184030000006892532943726271669_);fill:#F4F4F4;}
	.st3{clip-path:url(#SVGID_00000140724261324452455520000010910334738907119501_);fill:#FCFCFC;}
	.st4{fill:#FCFCFC;}
</style>
<rect class="st0" width="400" height="400"/>
<g>
	<g>
		<g>
			<defs>
				<rect id="SVGID_1_" x="139.1" y="126" width="134.6" height="148"/>
			</defs>
			<clipPath id="SVGID_00000113340312341735642030000010886882985710712468_">
				<use xlink:href="#SVGID_1_"  style="overflow:visible;"/>
			</clipPath>
			<path style="clip-path:url(#SVGID_00000113340312341735642030000010886882985710712468_);fill:#DBDBDB;" d="M273.7,126v148
				c-34.2-2.3-26.8-26.9-36.5-41.7c-9.8-15-33.3-7-48.5-26.1c-15.5-18.9-11.3-32.5-15.5-43.5c-4.2-11-19.6-13.1-27.4-20.4
				c-6.5-6.2-6.5-16.3-6.5-16.3H273.7L273.7,126z"/>
		</g>
	</g>
	<g>
		<g>
			<defs>
				<rect id="SVGID_00000083775821263934555730000015224322701977025920_" x="134.9" y="163" width="101" height="111"/>
			</defs>
			<clipPath id="SVGID_00000013913043029897679180000013695383245807009452_">
				<use xlink:href="#SVGID_00000083775821263934555730000015224322701977025920_"  style="overflow:visible;"/>
			</clipPath>
			<path style="clip-path:url(#SVGID_00000013913043029897679180000013695383245807009452_);fill:#F4F4F4;" d="M236,163v110.9
				c-25.6-1.8-20.1-20.2-27.4-31.3c-7.3-11.3-25-5.3-36.5-19.6c-11.6-14.2-8.5-24.3-11.6-32.5c-3.1-8.2-14.7-9.9-20.6-15.3
				c-4.9-4.6-4.9-12.2-4.9-12.2L236,163L236,163z"/>
		</g>
	</g>
	<g>
		<g>
			<defs>
				<rect id="SVGID_00000110452465110211207520000001991988688903147905_" x="130.1" y="200" width="67.3" height="74"/>
			</defs>
			<clipPath id="SVGID_00000163070957139271611680000000987538362810862524_">
				<use xlink:href="#SVGID_00000110452465110211207520000001991988688903147905_"  style="overflow:visible;"/>
			</clipPath>
			<path style="clip-path:url(#SVGID_00000163070957139271611680000000987538362810862524_);fill:#FCFCFC;" d="M197.5,200v73.9
				c-17.1-1.2-13.4-13.4-18.3-20.9c-4.9-7.5-16.7-3.5-24.3-13c-7.7-9.4-5.6-16.2-7.7-21.7s-9.8-6.6-13.7-10.2
				c-3.3-3-3.3-8.2-3.3-8.2L197.5,200L197.5,200z"/>
		</g>
	</g>
	<path class="st4" d="M142.8,241.7L142.8,241.7c9.1,0,16.5,7.2,16.5,16.1l0,0c0,8.9-7.4,16.1-16.5,16.1l0,0
		c-9.1,0-16.5-7.2-16.5-16.1l0,0C126.3,248.9,133.7,241.7,142.8,241.7z"/>
</g>
</svg>
