<?xml version="1.0" encoding="utf-8"?>
<!-- Generator: Adobe Illustrator 28.2.0, SVG Export Plug-In . SVG Version: 6.00 Build 0)  -->
<svg version="1.1" id="Layer_1" xmlns="http://www.w3.org/2000/svg" xmlns:xlink="http://www.w3.org/1999/xlink" x="0px" y="0px"
	 viewBox="0 0 140 30" style="enable-background:new 0 0 140 30;" xml:space="preserve">
<style type="text/css">
	.st0{clip-path:url(#SVGID_00000011723217263691281050000016227014206604981384_);}
	.st1{clip-path:url(#SVGID_00000152959097061440503620000003640430184769043888_);}
	.st2{clip-path:url(#SVGID_00000145744087112372506020000015483023562639948683_);}
</style>
<g>
	<g>
		<defs>
			<rect id="SVGID_1_" x="6.3" y="5.3" width="32.3" height="5.5"/>
		</defs>
		<clipPath id="SVGID_00000152264942575820925650000001919883393355929256_">
			<use xlink:href="#SVGID_1_"  style="overflow:visible;"/>
		</clipPath>
		<path style="clip-path:url(#SVGID_00000152264942575820925650000001919883393355929256_);" d="M51.4,8.6c-1.1,0-1.6-0.5-2.3-1.3
			l0,0c-0.9-0.9-1.9-2-4-2c-2.1,0-3.1,1.1-4,2c-0.7,0.7-1.2,1.3-2.3,1.3S37.1,8,36.4,7.3l0,0c-0.9-0.9-1.9-2-4-2c-2.1,0-3.1,1.1-4,2
			l0,0C27.7,8,27.1,8.6,26,8.6S24.4,8,23.7,7.3l0,0c-0.9-0.9-1.9-2-4-2c-2.1,0-3.1,1.1-4,2l0,0C15,8,14.5,8.6,13.4,8.6
			c-1.1,0-1.6-0.5-2.3-1.3l0,0c-0.9-0.9-1.9-2-4-2H6.5v2.3H7c1.1,0,1.6,0.5,2.3,1.3l0,0c0.9,0.9,1.9,2,4,2c2.1,0,3.1-1.1,4-2l0,0
			c0.7-0.7,1.2-1.3,2.3-1.3s1.6,0.5,2.3,1.3l0,0c0.9,0.9,1.9,2,4,2c2.1,0,3.1-1.1,4-2l0,0c0.7-0.7,1.2-1.3,2.3-1.3
			c1.1,0,1.6,0.5,2.3,1.3c0.9,0.9,1.9,2,4,2c2.1,0,3.1-1.1,4-2l0,0C43.4,8.1,44,7.6,45,7.6c1.1,0,1.6,0.5,2.3,1.3l0,0
			c0.9,0.9,1.9,2,4,2h0.5V8.6H51.4z"/>
	</g>
	<g>
		<defs>
			<rect id="SVGID_00000064330080606255217340000016688697145573092010_" x="6.3" y="12.3" width="32.3" height="5.5"/>
		</defs>
		<clipPath id="SVGID_00000075149479949824245210000010260393001254573729_">
			<use xlink:href="#SVGID_00000064330080606255217340000016688697145573092010_"  style="overflow:visible;"/>
		</clipPath>
		<path style="clip-path:url(#SVGID_00000075149479949824245210000010260393001254573729_);" d="M51.4,15.6c-1.1,0-1.6-0.5-2.3-1.3
			l0,0c-0.9-0.9-1.9-2-4-2c-2.1,0-3.1,1.1-4,2c-0.7,0.7-1.2,1.3-2.3,1.3s-1.6-0.5-2.3-1.3l0,0c-0.9-0.9-1.9-2-4-2
			c-2.1,0-3.1,1.1-4,2l0,0c-0.7,0.7-1.2,1.3-2.3,1.3s-1.6-0.5-2.3-1.3l0,0c-0.9-0.9-1.9-2-4-2c-2.1,0-3.1,1.1-4,2l0,0
			c-0.7,0.7-1.2,1.3-2.3,1.3c-1.1,0-1.6-0.5-2.3-1.3l0,0c-0.9-0.9-1.9-2-4-2H6.5v2.3H7c1.1,0,1.6,0.5,2.3,1.3l0,0c0.9,0.9,1.9,2,4,2
			c2.1,0,3.1-1.1,4-2l0,0c0.7-0.7,1.2-1.3,2.3-1.3s1.6,0.5,2.3,1.3l0,0c0.9,0.9,1.9,2,4,2c2.1,0,3.1-1.1,4-2l0,0
			c0.7-0.7,1.2-1.3,2.3-1.3c1.1,0,1.6,0.5,2.3,1.3c0.9,0.9,1.9,2,4,2c2.1,0,3.1-1.1,4-2l0,0c0.7-0.7,1.2-1.3,2.3-1.3
			c1.1,0,1.6,0.5,2.3,1.3l0,0c0.9,0.9,1.9,2,4,2h0.5v-2.3H51.4z"/>
	</g>
	<g>
		<defs>
			<rect id="SVGID_00000028283262547083998960000009566029467685444737_" x="6.3" y="19.3" width="32.3" height="5.5"/>
		</defs>
		<clipPath id="SVGID_00000152966043351808425460000010094022383716053659_">
			<use xlink:href="#SVGID_00000028283262547083998960000009566029467685444737_"  style="overflow:visible;"/>
		</clipPath>
		<path style="clip-path:url(#SVGID_00000152966043351808425460000010094022383716053659_);" d="M51.4,22.5c-1.1,0-1.6-0.5-2.3-1.3
			l0,0c-0.9-0.9-1.9-2-4-2c-2.1,0-3.1,1.1-4,2c-0.7,0.7-1.2,1.3-2.3,1.3s-1.6-0.5-2.3-1.3l0,0c-0.9-0.9-1.9-2-4-2
			c-2.1,0-3.1,1.1-4,2l0,0c-0.7,0.7-1.2,1.3-2.3,1.3s-1.6-0.5-2.3-1.3l0,0c-0.9-0.9-1.9-2-4-2c-2.1,0-3.1,1.1-4,2l0,0
			c-0.7,0.7-1.2,1.3-2.3,1.3c-1.1,0-1.6-0.5-2.3-1.3l0,0c-0.9-0.9-1.9-2-4-2H6.5v2.3H7c1.1,0,1.6,0.5,2.3,1.3l0,0c0.9,0.9,1.9,2,4,2
			c2.1,0,3.1-1.1,4-2l0,0c0.7-0.7,1.2-1.3,2.3-1.3s1.6,0.5,2.3,1.3l0,0c0.9,0.9,1.9,2,4,2c2.1,0,3.1-1.1,4-2l0,0
			c0.7-0.7,1.2-1.3,2.3-1.3c1.1,0,1.6,0.5,2.3,1.3c0.9,0.9,1.9,2,4,2c2.1,0,3.1-1.1,4-2l0,0c0.7-0.7,1.2-1.3,2.3-1.3
			c1.1,0,1.6,0.5,2.3,1.3l0,0c0.9,0.9,1.9,2,4,2h0.5v-2.3H51.4z"/>
	</g>
	<g>
		<path d="M53,10.8c0.2,0,0.4,0.1,0.4,0.3v0.1c0,0.1-0.1,0.3-0.3,0.6c-0.2,0.2-0.3,0.5-0.3,0.7v8.4c0,0.5-0.2,0.7-0.7,0.7h-0.9
			c-0.3,0-0.6-0.2-0.8-0.5l-5.4-7.1v6c0,0.3,0.1,0.5,0.4,0.8s0.4,0.4,0.4,0.6v0.1c0,0.2-0.1,0.3-0.4,0.3h-1.9
			c-0.2,0-0.4-0.1-0.4-0.3v-0.1c0-0.1,0.1-0.3,0.3-0.6c0.2-0.3,0.3-0.5,0.3-0.8v-7.4c0-0.3-0.1-0.5-0.3-0.8
			c-0.2-0.3-0.3-0.4-0.3-0.6V11c0-0.2,0.1-0.3,0.4-0.3h3.6c0.2,0,0.3,0.1,0.3,0.3v0.1c0,0.1,0,0.1-0.1,0.2c-0.1,0.1-0.1,0.2-0.2,0.3
			c-0.1,0.1-0.1,0.2-0.1,0.3s0,0.3,0.2,0.4l4.4,5.9v-5.9c0-0.3-0.1-0.5-0.3-0.7c-0.2-0.2-0.3-0.4-0.3-0.6V11c0-0.2,0.1-0.3,0.4-0.3
			H53z"/>
		<path d="M59.5,21.6c-1.5,0-2.7-0.5-3.8-1.5c-1-1-1.6-2.3-1.6-3.9c0-1.7,0.5-3,1.5-4c1-1,2.3-1.5,3.9-1.5c1.5,0,2.7,0.5,3.8,1.6
			c1,1.1,1.6,2.4,1.6,4c0,1.6-0.5,2.9-1.5,3.9S61,21.6,59.5,21.6z M60.3,20.5c0.5,0,1-0.2,1.3-0.6c0.3-0.4,0.5-0.9,0.5-1.6
			c0-0.9-0.2-1.8-0.5-2.8c-0.3-1-0.8-1.9-1.3-2.7c-0.6-0.7-1.1-1.1-1.7-1.1c-0.5,0-1,0.2-1.2,0.6c-0.3,0.4-0.4,0.9-0.4,1.6
			c0,1,0.2,1.9,0.5,3c0.3,1,0.8,1.9,1.3,2.6C59.2,20.2,59.7,20.5,60.3,20.5z"/>
		<path d="M68.2,21.5c-0.2,0-0.3-0.1-0.3-0.3v-0.1c0-0.1,0.1-0.3,0.3-0.6c0.2-0.2,0.3-0.5,0.3-0.7v-8h-0.8c-0.2,0-0.4,0.1-0.6,0.3
			s-0.3,0.4-0.4,0.6c-0.1,0.2-0.2,0.4-0.4,0.6c-0.2,0.2-0.3,0.3-0.5,0.3h-0.3c-0.3,0-0.4-0.1-0.4-0.4l0.3-2.1c0-0.3,0.2-0.5,0.5-0.5
			h7.8c0.3,0,0.5,0.2,0.5,0.5l0.3,2.1c0,0.1,0,0.2-0.1,0.3c-0.1,0.1-0.2,0.1-0.3,0.1h-0.3c-0.2,0-0.3-0.1-0.5-0.3
			c-0.2-0.2-0.3-0.4-0.4-0.6c-0.1-0.2-0.3-0.4-0.5-0.6c-0.2-0.2-0.4-0.3-0.6-0.3h-0.8v8c0,0.3,0.1,0.5,0.3,0.7s0.3,0.4,0.3,0.6v0.1
			c0,0.2-0.1,0.3-0.4,0.3H68.2z"/>
		<path d="M77.1,21.5c-0.2,0-0.4-0.1-0.4-0.3v-0.1c0-0.1,0.1-0.3,0.4-0.5c0.2-0.2,0.4-0.5,0.5-0.8l2.8-7.3c0.1-0.2,0-0.5-0.2-0.8
			s-0.4-0.5-0.4-0.6V11c0-0.2,0.1-0.3,0.3-0.3h3.5c0.2,0,0.3,0.1,0.3,0.3v0.1c0,0.1,0,0.2-0.1,0.3c-0.1,0.1-0.2,0.2-0.3,0.3
			c-0.1,0.1-0.2,0.2-0.2,0.4c-0.1,0.1,0,0.3,0,0.4l3.2,7.4c0.1,0.3,0.3,0.5,0.5,0.7c0.2,0.2,0.4,0.4,0.4,0.6v0.1
			c0,0.2-0.1,0.3-0.4,0.3h-3.9c-0.2,0-0.4-0.1-0.4-0.3v-0.1c0-0.1,0.1-0.2,0.2-0.4s0.3-0.3,0.4-0.4c0.1-0.2,0.1-0.3,0.1-0.5
			l-0.3-0.9h-3.8l-0.3,0.9c-0.1,0.2-0.1,0.4,0.1,0.5c0.1,0.2,0.2,0.3,0.4,0.4c0.1,0.1,0.2,0.2,0.2,0.4v0.1c0,0.2-0.1,0.3-0.4,0.3
			H77.1z M79.8,17.8h3l-1.5-4.2L79.8,17.8z"/>
		<path d="M91,21.5c-0.2,0-0.4-0.1-0.4-0.3v-0.1c0-0.1,0.1-0.3,0.3-0.6c0.2-0.2,0.3-0.5,0.3-0.7v-7.4c0-0.3-0.1-0.5-0.3-0.7
			c-0.2-0.2-0.3-0.4-0.3-0.6V11c0-0.2,0.1-0.3,0.4-0.3h3.3c0.2,0,0.4,0.1,0.4,0.3v0.1c0,0.1-0.1,0.3-0.3,0.6
			c-0.2,0.2-0.3,0.5-0.3,0.7v7c0,0.3,0.1,0.5,0.2,0.7s0.3,0.3,0.6,0.3h1.6c0.3,0,0.5-0.1,0.8-0.3c0.2-0.2,0.4-0.5,0.5-0.7
			c0.1-0.3,0.3-0.5,0.4-0.7s0.3-0.3,0.5-0.3h0.2c0.3,0,0.4,0.1,0.3,0.4L98.6,21c-0.1,0.3-0.2,0.5-0.5,0.5H91z"/>
		<path d="M104.7,21.6c-1.5,0-2.7-0.5-3.8-1.5c-1-1-1.6-2.3-1.6-3.9c0-1.7,0.5-3,1.5-4c1-1,2.3-1.5,3.9-1.5c1.5,0,2.7,0.5,3.8,1.6
			c1,1.1,1.6,2.4,1.6,4c0,1.6-0.5,2.9-1.5,3.9C107.4,21.1,106.2,21.6,104.7,21.6z M105.5,20.5c0.5,0,1-0.2,1.3-0.6
			c0.3-0.4,0.5-0.9,0.5-1.6c0-0.9-0.2-1.8-0.5-2.8c-0.3-1-0.8-1.9-1.3-2.7c-0.6-0.7-1.1-1.1-1.7-1.1c-0.5,0-1,0.2-1.2,0.6
			c-0.3,0.4-0.4,0.9-0.4,1.6c0,1,0.2,1.9,0.5,3c0.3,1,0.8,1.9,1.3,2.6C104.3,20.2,104.9,20.5,105.5,20.5z"/>
		<path d="M120.7,16c0.2,0,0.4,0.1,0.4,0.3v0.1c0,0.1-0.1,0.3-0.4,0.6s-0.4,0.5-0.4,0.8v3.6c0,0.1,0,0.2-0.1,0.3
			c-0.1,0.1-0.2,0.1-0.3,0.1c-0.2,0-0.3-0.1-0.4-0.2l-0.6-0.7c-0.3,0.3-0.8,0.5-1.3,0.6s-1,0.2-1.4,0.2c-1.6,0-2.9-0.5-3.9-1.6
			c-1-1.1-1.5-2.4-1.5-3.9c0-1.1,0.3-2.1,0.8-2.9c0.5-0.9,1.1-1.5,1.9-1.9c0.8-0.4,1.6-0.6,2.4-0.6c1.3,0,2.3,0.3,3.2,0.8
			c0.8,0.5,1.3,1.2,1.3,2c0,0.4-0.1,0.7-0.3,0.9c-0.2,0.2-0.5,0.3-0.9,0.3c-0.3,0-0.6-0.1-0.8-0.2c-0.3-0.1-0.5-0.3-0.7-0.5
			s-0.4-0.5-0.6-0.7c-0.2-0.3-0.4-0.5-0.5-0.7c-0.2-0.2-0.4-0.4-0.6-0.5c-0.2-0.1-0.5-0.2-0.8-0.2c-0.5,0-0.9,0.2-1.3,0.7
			c-0.3,0.5-0.5,1.1-0.5,1.9c0,1.5,0.3,2.7,1,3.8s1.5,1.6,2.4,1.6c0.4,0,0.7-0.1,0.8-0.2v-1.8c0-0.2-0.1-0.4-0.2-0.5
			c-0.1-0.2-0.3-0.3-0.4-0.4c-0.1-0.1-0.2-0.2-0.2-0.4v-0.1c0-0.2,0.1-0.3,0.4-0.3L120.7,16z"/>
		<path d="M127,21.6c-1.5,0-2.7-0.5-3.8-1.5c-1-1-1.6-2.3-1.6-3.9c0-1.7,0.5-3,1.5-4c1-1,2.3-1.5,3.9-1.5c1.5,0,2.7,0.5,3.8,1.6
			c1,1.1,1.6,2.4,1.6,4c0,1.6-0.5,2.9-1.5,3.9C129.7,21.1,128.5,21.6,127,21.6z M127.8,20.5c0.5,0,1-0.2,1.3-0.6
			c0.3-0.4,0.5-0.9,0.5-1.6c0-0.9-0.2-1.8-0.5-2.8c-0.3-1-0.8-1.9-1.3-2.7c-0.6-0.7-1.1-1.1-1.7-1.1c-0.5,0-1,0.2-1.2,0.6
			c-0.3,0.4-0.4,0.9-0.4,1.6c0,1,0.2,1.9,0.5,3c0.3,1,0.8,1.9,1.3,2.6C126.6,20.2,127.2,20.5,127.8,20.5z"/>
	</g>
</g>
</svg>
