<?xml version="1.0" encoding="utf-8"?>
<!-- Generator: Adobe Illustrator 28.2.0, SVG Export Plug-In . SVG Version: 6.00 Build 0)  -->
<svg version="1.1" id="Layer_1" xmlns="http://www.w3.org/2000/svg" xmlns:xlink="http://www.w3.org/1999/xlink" x="0px" y="0px"
	 viewBox="0 0 2400 2400" style="enable-background:new 0 0 2400 2400;" xml:space="preserve">
<style type="text/css">
	.st0{fill:#0A0A0A;}
	.st1{display:none;fill:#FFFFFF;}
	.st2{clip-path:url(#SVGID_00000183942303102095043720000007099240242783809181_);fill:#DBDBDB;}
	.st3{clip-path:url(#SVGID_00000163791065283437884850000003505770467400748426_);fill:#F4F4F4;}
	.st4{clip-path:url(#SVGID_00000176751855683060223690000006380384383393886613_);fill:#FCFCFC;}
	.st5{fill:#FCFCFC;}
</style>
<rect class="st0" width="2400" height="2400"/>
<path class="st1" d="M1089.2,1080L1089.2,1080c5.1,0,9.2,4.1,9.2,9.2v166.2c0,5.1-4.1,9.2-9.2,9.2h0c-5.1,0-9.2-4.1-9.2-9.2v-166.2
	C1080,1084.1,1084.1,1080,1089.2,1080z"/>
<path class="st1" d="M1144.6,1107.7L1144.6,1107.7c5.1,0,9.2,4.1,9.2,9.2v166.2c0,5.1-4.1,9.2-9.2,9.2h0c-5.1,0-9.2-4.1-9.2-9.2
	v-166.2C1135.4,1111.8,1139.5,1107.7,1144.6,1107.7z"/>
<path class="st1" d="M1200,1080L1200,1080c5.1,0,9.2,4.1,9.2,9.2v166.2c0,5.1-4.1,9.2-9.2,9.2h0c-5.1,0-9.2-4.1-9.2-9.2v-166.2
	C1190.8,1084.1,1194.9,1080,1200,1080z"/>
<path class="st1" d="M1255.4,1107.7L1255.4,1107.7c5.1,0,9.2,4.1,9.2,9.2v166.2c0,5.1-4.1,9.2-9.2,9.2h0c-5.1,0-9.2-4.1-9.2-9.2
	v-166.2C1246.2,1111.8,1250.3,1107.7,1255.4,1107.7z"/>
<ellipse class="st1" cx="1089.2" cy="1310.8" rx="9.2" ry="9.2"/>
<path class="st1" d="M1209.2,1310.8c0,5.1-4.1,9.2-9.2,9.2c-5.1,0-9.2-4.1-9.2-9.2s4.1-9.2,9.2-9.2
	C1205.1,1301.5,1209.2,1305.7,1209.2,1310.8z"/>
<path class="st1" d="M1310.8,1080L1310.8,1080c5.1,0,9.2,4.1,9.2,9.2v166.2c0,5.1-4.1,9.2-9.2,9.2h0c-5.1,0-9.2-4.1-9.2-9.2v-166.2
	C1301.5,1084.1,1305.7,1080,1310.8,1080z"/>
<ellipse class="st1" cx="1310.8" cy="1310.8" rx="9.2" ry="9.2"/>
<g>
	<g>
		<g>
			<defs>
				<rect id="SVGID_1_" x="1100.6" y="1080" width="220.1" height="239.4"/>
			</defs>
			<clipPath id="SVGID_00000029753141662411020190000009623170151503977874_">
				<use xlink:href="#SVGID_1_"  style="overflow:visible;"/>
			</clipPath>
			<path style="clip-path:url(#SVGID_00000029753141662411020190000009623170151503977874_);fill:#DBDBDB;" d="M1320.5,1080v239.4
				c-55.9-3.7-43.8-43.5-59.7-67.5c-16-24.3-54.4-11.3-79.3-42.2c-25.3-30.6-18.5-52.5-25.3-70.4s-32-21.2-44.8-33
				c-10.7-10-10.7-26.4-10.7-26.4H1320.5L1320.5,1080z"/>
		</g>
	</g>
	<g>
		<g>
			<defs>
				<rect id="SVGID_00000183244269301620248760000008859257180247834040_" x="1093.7" y="1139.8" width="165.1" height="179.5"/>
			</defs>
			<clipPath id="SVGID_00000016783149812368780220000009033334483821203632_">
				<use xlink:href="#SVGID_00000183244269301620248760000008859257180247834040_"  style="overflow:visible;"/>
			</clipPath>
			<path style="clip-path:url(#SVGID_00000016783149812368780220000009033334483821203632_);fill:#F4F4F4;" d="M1259,1139.9v179.3
				c-41.9-2.9-32.8-32.6-44.8-50.6c-12-18.2-40.8-8.5-59.6-31.6c-19-22.9-13.9-39.3-19-52.6s-24-15.9-33.7-24.7
				c-8-7.4-8-19.8-8-19.8L1259,1139.9L1259,1139.9z"/>
		</g>
	</g>
	<g>
		<g>
			<defs>
				<rect id="SVGID_00000050636136471956819030000005452083643840277417_" x="1085.9" y="1199.6" width="110" height="119.6"/>
			</defs>
			<clipPath id="SVGID_00000115507234857360784370000014121614506904028322_">
				<use xlink:href="#SVGID_00000050636136471956819030000005452083643840277417_"  style="overflow:visible;"/>
			</clipPath>
			<path style="clip-path:url(#SVGID_00000115507234857360784370000014121614506904028322_);fill:#FCFCFC;" d="M1196.1,1199.7v119.5
				c-28-1.9-21.9-21.7-29.9-33.8c-8-12.1-27.3-5.6-39.8-21.1c-12.6-15.2-9.2-26.3-12.6-35.1s-16-10.7-22.4-16.4
				c-5.3-4.9-5.3-13.2-5.3-13.2L1196.1,1199.7L1196.1,1199.7z"/>
		</g>
	</g>
	<path class="st5" d="M1106.6,1267.1L1106.6,1267.1c14.9,0,27,11.6,27,26l0,0c0,14.4-12.1,26-27,26l0,0c-14.9,0-27-11.6-27-26l0,0
		C1079.6,1278.7,1091.7,1267.1,1106.6,1267.1z"/>
</g>
</svg>
