<?xml version="1.0" encoding="utf-8"?>
<!-- Generator: Adobe Illustrator 28.2.0, SVG Export Plug-In . SVG Version: 6.00 Build 0)  -->
<svg version="1.1" id="Layer_1" xmlns="http://www.w3.org/2000/svg" xmlns:xlink="http://www.w3.org/1999/xlink" x="0px" y="0px"
	 viewBox="0 0 2400 2400" style="enable-background:new 0 0 2400 2400;" xml:space="preserve">
<style type="text/css">
	.st0{fill:#FFFFFF;}
	.st1{clip-path:url(#SVGID_00000126297083656785559110000000508147217988912013_);}
	.st2{clip-path:url(#SVGID_00000043417094653858583740000013683764963888671623_);fill:#1E1E1E;}
	.st3{clip-path:url(#SVGID_00000018239218306854869640000009654425374675379106_);fill:#494949;}
	.st4{fill:#5E5E5E;}
</style>
<rect class="st0" width="2400" height="2400"/>
<g>
	<g>
		<g>
			<defs>
				<rect id="SVGID_1_" x="1100.2" y="1077" width="222.8" height="245"/>
			</defs>
			<clipPath id="SVGID_00000013877591109096226270000002430154726004646553_">
				<use xlink:href="#SVGID_1_"  style="overflow:visible;"/>
			</clipPath>
			<path style="clip-path:url(#SVGID_00000013877591109096226270000002430154726004646553_);" d="M1322.9,1077v245
				c-56.6-3.8-44.3-44.5-60.5-69.1c-16.2-24.9-55.1-11.5-80.2-43.2c-25.6-31.3-18.8-53.7-25.6-72s-32.4-21.7-45.4-33.7
				c-10.8-10.2-10.8-27-10.8-27H1322.9L1322.9,1077z"/>
		</g>
	</g>
	<g>
		<g>
			<defs>
				<rect id="SVGID_00000068676979621404463970000010606483791183176373_" x="1093.2" y="1138.2" width="167.1" height="183.6"/>
			</defs>
			<clipPath id="SVGID_00000147210924698615751930000001761216120506291591_">
				<use xlink:href="#SVGID_00000068676979621404463970000010606483791183176373_"  style="overflow:visible;"/>
			</clipPath>
			<path style="clip-path:url(#SVGID_00000147210924698615751930000001761216120506291591_);fill:#1E1E1E;" d="M1260.6,1138.3v183.5
				c-42.4-2.9-33.2-33.4-45.4-51.8c-12.1-18.6-41.3-8.7-60.4-32.4c-19.3-23.4-14.1-40.2-19.3-53.9c-5.2-13.6-24.3-16.3-34.1-25.3
				c-8.1-7.6-8.1-20.2-8.1-20.2H1260.6L1260.6,1138.3z"/>
		</g>
	</g>
	<g>
		<g>
			<defs>
				<rect id="SVGID_00000114064594854067114920000018341963376569683328_" x="1085.4" y="1199.4" width="111.4" height="122.4"/>
			</defs>
			<clipPath id="SVGID_00000111164985619318020740000016690790153280212886_">
				<use xlink:href="#SVGID_00000114064594854067114920000018341963376569683328_"  style="overflow:visible;"/>
			</clipPath>
			<path style="clip-path:url(#SVGID_00000111164985619318020740000016690790153280212886_);fill:#494949;" d="M1196.9,1199.6v122.3
				c-28.3-2-22.2-22.2-30.3-34.6c-8.1-12.4-27.6-5.8-40.2-21.6c-12.8-15.6-9.3-26.9-12.8-35.9c-3.4-9.1-16.2-10.9-22.7-16.8
				c-5.4-5-5.4-13.5-5.4-13.5L1196.9,1199.6L1196.9,1199.6z"/>
		</g>
	</g>
	<path class="st4" d="M1106.4,1268.5L1106.4,1268.5c15.1,0,27.4,11.9,27.4,26.6l0,0c0,14.7-12.3,26.6-27.4,26.6l0,0
		c-15.1,0-27.4-11.9-27.4-26.6l0,0C1079,1280.4,1091.3,1268.5,1106.4,1268.5z"/>
</g>
</svg>
