<?xml version="1.0" encoding="utf-8"?>
<!-- Generator: Adobe Illustrator 28.2.0, SVG Export Plug-In . SVG Version: 6.00 Build 0)  -->
<svg version="1.1" id="Layer_1" xmlns="http://www.w3.org/2000/svg" xmlns:xlink="http://www.w3.org/1999/xlink" x="0px" y="0px"
	 viewBox="0 0 200 200" style="enable-background:new 0 0 200 200;" xml:space="preserve">
<style type="text/css">
	.st0{display:none;fill:#0A0A0A;}
	.st1{clip-path:url(#SVGID_00000049927521767701417260000010137350274167986331_);fill:#DBDBDB;}
	.st2{clip-path:url(#SVGID_00000145754104482718493320000002016772464011616935_);fill:#F4F4F4;}
	.st3{clip-path:url(#SVGID_00000034080706820105440300000012548690412803585203_);fill:#FCFCFC;}
	.st4{fill:#FCFCFC;}
</style>
<ellipse class="st0" cx="192.3" cy="192.3" rx="7.7" ry="7.7"/>
<path class="st0" d="M107.7,192.3c0,4.2-3.4,7.7-7.7,7.7c-4.2,0-7.7-3.4-7.7-7.7c0-4.2,3.4-7.7,7.7-7.7
	C104.2,184.6,107.7,188.1,107.7,192.3z"/>
<ellipse class="st0" cx="7.7" cy="192.3" rx="7.7" ry="7.7"/>
<path class="st0" d="M192.3,0L192.3,0c4.2,0,7.7,3.4,7.7,7.7v138.5c0,4.2-3.4,7.7-7.7,7.7h0c-4.2,0-7.7-3.4-7.7-7.7V7.7
	C184.6,3.4,188.1,0,192.3,0z"/>
<path class="st0" d="M146.2,23.1L146.2,23.1c4.2,0,7.7,3.4,7.7,7.7v138.5c0,4.2-3.4,7.7-7.7,7.7h0c-4.2,0-7.7-3.4-7.7-7.7V30.8
	C138.5,26.5,141.9,23.1,146.2,23.1z"/>
<path class="st0" d="M100,0L100,0c4.2,0,7.7,3.4,7.7,7.7v138.5c0,4.2-3.4,7.7-7.7,7.7l0,0c-4.2,0-7.7-3.4-7.7-7.7V7.7
	C92.3,3.4,95.8,0,100,0z"/>
<path class="st0" d="M53.8,23.1L53.8,23.1c4.2,0,7.7,3.4,7.7,7.7v138.5c0,4.2-3.4,7.7-7.7,7.7l0,0c-4.2,0-7.7-3.4-7.7-7.7V30.8
	C46.2,26.5,49.6,23.1,53.8,23.1z"/>
<path class="st0" d="M7.7,0L7.7,0c4.2,0,7.7,3.4,7.7,7.7v138.5c0,4.2-3.4,7.7-7.7,7.7l0,0c-4.2,0-7.7-3.4-7.7-7.7V7.7
	C0,3.4,3.4,0,7.7,0z"/>
<g>
	<g>
		<defs>
			<rect id="SVGID_1_" x="18.5" y="-0.2" width="181.6" height="199.7"/>
		</defs>
		<clipPath id="SVGID_00000127035375362286023050000006495344741900766099_">
			<use xlink:href="#SVGID_1_"  style="overflow:visible;"/>
		</clipPath>
		<path style="clip-path:url(#SVGID_00000127035375362286023050000006495344741900766099_);fill:#DBDBDB;" d="M200-0.2v199.7
			c-46.1-3.1-36.1-36.3-49.3-56.3c-13.2-20.3-44.9-9.4-65.4-35.2C64.4,82.5,70,64.2,64.4,49.3c-5.6-14.9-26.4-17.7-37-27.5
			c-8.8-8.3-8.8-22-8.8-22L200-0.2L200-0.2z"/>
	</g>
	<g>
		<defs>
			<rect id="SVGID_00000160149074329199568020000007489704792463485073_" x="12.8" y="49.7" width="136.2" height="149.7"/>
		</defs>
		<clipPath id="SVGID_00000122707293055727879180000010912767898944587168_">
			<use xlink:href="#SVGID_00000160149074329199568020000007489704792463485073_"  style="overflow:visible;"/>
		</clipPath>
		<path style="clip-path:url(#SVGID_00000122707293055727879180000010912767898944587168_);fill:#F4F4F4;" d="M149.2,49.8v149.6
			c-34.6-2.4-27.1-27.2-37-42.2c-9.9-15.2-33.7-7.1-49.2-26.4c-15.7-19.1-11.5-32.8-15.7-43.9c-4.2-11.1-19.8-13.3-27.8-20.6
			c-6.6-6.2-6.6-16.5-6.6-16.5H149.2L149.2,49.8z"/>
	</g>
	<g>
		<defs>
			<rect id="SVGID_00000112613049800555338600000014354524091391191739_" x="6.4" y="99.6" width="90.8" height="99.8"/>
		</defs>
		<clipPath id="SVGID_00000037683074668312115490000001818248728390100366_">
			<use xlink:href="#SVGID_00000112613049800555338600000014354524091391191739_"  style="overflow:visible;"/>
		</clipPath>
		<path style="clip-path:url(#SVGID_00000037683074668312115490000001818248728390100366_);fill:#FCFCFC;" d="M97.3,99.7v99.7
			c-23.1-1.6-18.1-18.1-24.7-28.2c-6.6-10.1-22.5-4.7-32.8-17.6c-10.4-12.7-7.6-21.9-10.4-29.3c-2.8-7.4-13.2-8.9-18.5-13.7
			c-4.4-4.1-4.4-11-4.4-11L97.3,99.7L97.3,99.7z"/>
	</g>
	<path class="st4" d="M23.5,155.9L23.5,155.9c12.3,0,22.3,9.7,22.3,21.7v0c0,12-10,21.7-22.3,21.7h0c-12.3,0-22.3-9.7-22.3-21.7v0
		C1.2,165.6,11.2,155.9,23.5,155.9z"/>
</g>
</svg>
